<svg width="60" height="60" viewBox="0 0 60 60" fill="none" xmlns="http://www.w3.org/2000/svg">
<path d="M45 47.15H43.1C41.1 47.15 39.2 47.925 37.8 49.325L33.5249 53.55C31.5749 55.475 28.4 55.475 26.45 53.55L22.175 49.325C20.775 47.925 18.85 47.15 16.875 47.15H15C10.85 47.15 7.5 43.825 7.5 39.725V12.45C7.5 8.34995 10.85 5.02502 15 5.02502H45C49.15 5.02502 52.5 8.34995 52.5 12.45V39.725C52.5 43.8 49.15 47.15 45 47.15Z" stroke="white" stroke-width="1.5" stroke-miterlimit="10" stroke-linecap="round" stroke-linejoin="round"/>
<path d="M29.9998 25C33.2169 25 35.8249 22.392 35.8249 19.175C35.8249 15.9579 33.2169 13.3501 29.9998 13.3501C26.7828 13.3501 24.1748 15.9579 24.1748 19.175C24.1748 22.392 26.7828 25 29.9998 25Z" stroke="white" stroke-width="1.5" stroke-linecap="round" stroke-linejoin="round"/>
<path d="M40 39.15C40 34.65 35.525 31.0001 30 31.0001C24.475 31.0001 20 34.65 20 39.15" stroke="white" stroke-width="1.5" stroke-linecap="round" stroke-linejoin="round"/>
</svg>
