<svg width="201" height="58" viewBox="0 0 201 58" fill="none" xmlns="http://www.w3.org/2000/svg">
<path d="M22.7056 55.68C22.7056 56.3733 21.079 56.9333 17.8256 57.36C14.5723 57.7867 11.319 58 8.06563 58C4.81229 58 2.73229 57.8133 1.82563 57.44C0.918959 57.0667 0.465625 56.48 0.465625 55.68V4.24C0.465625 1.68 8.14563 0.399998 23.5056 0.399998C32.7856 0.399998 38.919 1.04 41.9056 2.32C45.5323 3.81333 47.9856 5.84 49.2656 8.4C50.9723 11.7067 51.8256 15.9467 51.8256 21.12C51.8256 28.2133 50.599 33.36 48.1456 36.56C46.3856 38.9067 44.6256 40.4267 42.8656 41.12C41.1056 41.8133 39.639 42.32 38.4656 42.64C37.3456 42.9067 35.9323 43.12 34.2256 43.28C31.879 43.4933 28.679 43.6 24.6256 43.6L22.7056 43.52V55.68ZM22.7856 30.24H24.7056C25.719 30.24 26.519 30.1067 27.1056 29.84C27.6923 29.52 28.199 28.72 28.6256 27.44C29.1056 26.1067 29.3456 24.2667 29.3456 21.92C29.3456 19.52 29.079 17.7067 28.5456 16.48C28.0656 15.2 27.559 14.4533 27.0256 14.24C26.5456 13.9733 25.959 13.84 25.2656 13.84H22.7856V30.24ZM63.7481 58C61.0815 58 59.2948 57.8667 58.3881 57.6C57.4815 57.28 57.0281 56.7733 57.0281 56.08V6.32C57.0281 5.14666 58.5748 4 61.6681 2.88C64.7615 1.70667 68.2281 1.12 72.0681 1.12C75.4815 1.12 77.7215 1.84 78.7881 3.28C79.1615 3.81333 79.3481 4.34666 79.3481 4.88V40.32C85.8548 39.8933 90.7615 39.68 94.0681 39.68C95.1881 39.68 95.7481 41.4667 95.7481 45.04C95.7481 48.56 95.5081 51.6 95.0281 54.16C94.5481 56.72 93.9081 58 93.1081 58H63.7481ZM141.104 58H107.184C104.57 58 102.81 57.8133 101.904 57.44C100.997 57.0667 100.544 56.48 100.544 55.68V5.04C100.544 3.65333 101.157 2.66666 102.384 2.08C103.664 1.49333 105.93 1.2 109.184 1.2H141.344C142.464 1.2 143.024 3.06666 143.024 6.8C143.024 10.48 142.784 13.3067 142.304 15.28C141.824 17.2 141.184 18.16 140.384 18.16C136.917 18.16 131.077 17.8133 122.864 17.12V22.48C130.757 22.16 135.904 22 138.304 22C139.744 22 140.464 23.68 140.464 27.04C140.464 30.4 140.17 32.96 139.584 34.72C139.05 36.4267 138.304 37.28 137.344 37.28L122.864 36.96V42.08C132.144 41.3867 138.544 41.04 142.064 41.04C143.184 41.04 143.744 42.9067 143.744 46.64C143.744 50.3733 143.504 53.2 143.024 55.12C142.544 57.04 141.904 58 141.104 58ZM171.612 55.68C171.612 56.3733 169.985 56.9333 166.732 57.36C163.479 57.7867 160.225 58 156.972 58C153.719 58 151.639 57.8133 150.732 57.44C149.825 57.0667 149.372 56.48 149.372 55.68V4.24C149.372 1.68 157.052 0.399998 172.412 0.399998C181.692 0.399998 187.825 1.04 190.812 2.32C194.439 3.81333 196.892 5.84 198.172 8.4C199.879 11.7067 200.732 15.9467 200.732 21.12C200.732 28.2133 199.505 33.36 197.052 36.56C195.292 38.9067 193.532 40.4267 191.772 41.12C190.012 41.8133 188.545 42.32 187.372 42.64C186.252 42.9067 184.839 43.12 183.132 43.28C180.785 43.4933 177.585 43.6 173.532 43.6L171.612 43.52V55.68ZM171.692 30.24H173.612C174.625 30.24 175.425 30.1067 176.012 29.84C176.599 29.52 177.105 28.72 177.532 27.44C178.012 26.1067 178.252 24.2667 178.252 21.92C178.252 19.52 177.985 17.7067 177.452 16.48C176.972 15.2 176.465 14.4533 175.932 14.24C175.452 13.9733 174.865 13.84 174.172 13.84H171.692V30.24Z" fill="white"/>
</svg>
