<svg width="40" height="40" viewBox="0 0 40 40" fill="none" xmlns="http://www.w3.org/2000/svg">
<rect width="40" height="40" fill="#FEE500"/>
<circle cx="20" cy="20" r="20" fill="#FEE500"/>
<path d="M20.0579 9.65234C13.8355 9.65234 8.81738 13.6668 8.81738 18.5403C8.81738 21.7037 10.9049 24.4737 14.0362 26.0554L12.9764 30.0137C12.9564 30.073 12.9533 30.1367 12.9675 30.1977C12.9817 30.2586 13.0125 30.3145 13.0567 30.3589C13.121 30.4156 13.2037 30.447 13.2895 30.4472C13.3606 30.4415 13.4281 30.4134 13.4822 30.3669L18.0426 27.2919C18.7158 27.3848 19.3944 27.433 20.0739 27.4363C26.2883 27.4363 31.3144 23.4219 31.3144 18.5403C31.3144 13.6587 26.2723 9.65234 20.0579 9.65234Z" fill="#392020"/>
<path d="M12.7511 17.1357H11.5226C11.3704 17.1401 11.22 17.1011 11.0891 17.0233C11.0309 16.9869 10.981 16.9388 10.9423 16.8822C10.9036 16.8255 10.877 16.7615 10.8643 16.6941C10.8604 16.6514 10.8604 16.6084 10.8643 16.5657C10.8604 16.4857 10.876 16.406 10.9095 16.3333C10.943 16.2606 10.9936 16.1971 11.0569 16.1482C11.1969 16.0468 11.3659 15.9933 11.5387 15.9956H15.24C15.3935 15.9902 15.5449 16.0323 15.6736 16.116C15.7331 16.1508 15.7841 16.1985 15.823 16.2554C15.8619 16.3123 15.8876 16.3772 15.8984 16.4452C15.9023 16.4853 15.9023 16.5256 15.8984 16.5657C15.9022 16.6468 15.8867 16.7276 15.8532 16.8016C15.8197 16.8756 15.7692 16.9405 15.7057 16.9912C15.5691 17.0924 15.4018 17.1435 15.232 17.1357H14.0437V21.3589C14.0485 21.4489 14.0346 21.5389 14.0028 21.6232C13.971 21.7075 13.9221 21.7843 13.859 21.8487C13.7986 21.9103 13.7259 21.9585 13.6457 21.9903C13.5655 22.0221 13.4796 22.0368 13.3934 22.0333C13.2426 22.0376 13.095 21.9895 12.9759 21.8969C12.8624 21.8065 12.7855 21.6782 12.7591 21.5356C12.7511 21.4769 12.7511 21.4176 12.7591 21.3589L12.7511 17.1357Z" fill="#FEE500"/>
<path d="M16.2529 16.3079C16.2883 16.1758 16.3712 16.0614 16.4858 15.9867C16.6079 15.9175 16.747 15.8841 16.8872 15.8904H17.1923C17.3411 15.8851 17.4884 15.9212 17.6179 15.9948C17.755 16.087 17.8525 16.2274 17.8908 16.3882L19.4966 20.9245C19.5383 21.0429 19.5731 21.1636 19.601 21.2859C19.6037 21.3367 19.6037 21.3876 19.601 21.4384C19.6037 21.5167 19.5893 21.5946 19.5588 21.6667C19.5283 21.7388 19.4824 21.8034 19.4244 21.8559C19.3681 21.9136 19.3006 21.959 19.226 21.9894C19.1514 22.0198 19.0713 22.0345 18.9908 22.0325C18.867 22.0449 18.7426 22.0152 18.6377 21.9482C18.5329 21.8812 18.4536 21.7808 18.4127 21.6632L18.0755 20.6757H15.9639L15.6267 21.6632C15.5868 21.7831 15.5066 21.8854 15.3997 21.9528C15.2928 22.0201 15.1659 22.0483 15.0406 22.0325C14.9048 22.0361 14.7718 21.9936 14.6632 21.9121C14.5574 21.8279 14.486 21.7081 14.4625 21.5749C14.4582 21.5295 14.4582 21.4838 14.4625 21.4384C14.4487 21.3587 14.4487 21.2773 14.4625 21.1976C14.4625 21.1093 14.5187 21.0129 14.5508 20.9245L16.2529 16.3079ZM17.0558 17.3597L16.2931 19.7684H17.8105L17.0558 17.3597Z" fill="#FEE500"/>
<path d="M19.7849 16.5658C19.7767 16.3856 19.8402 16.2095 19.9615 16.076C20.0232 16.0139 20.0972 15.9652 20.1788 15.9334C20.2604 15.9016 20.3477 15.8872 20.4352 15.8913C20.5856 15.8895 20.7324 15.9376 20.8527 16.0278C20.9642 16.122 21.0383 16.253 21.0615 16.3971C21.0694 16.453 21.0694 16.5099 21.0615 16.5658V20.789H23.2694C23.4225 20.787 23.5729 20.8287 23.703 20.9094C23.7614 20.9454 23.8117 20.9934 23.8504 21.0501C23.8891 21.1068 23.9155 21.171 23.9278 21.2386C23.9278 21.2386 23.9278 21.3189 23.9278 21.359C23.9316 21.439 23.9161 21.5186 23.8826 21.5913C23.849 21.664 23.7984 21.7276 23.7351 21.7766C23.5951 21.8779 23.4262 21.9314 23.2534 21.9291H20.5396C20.3668 21.9402 20.195 21.8952 20.0498 21.8007C19.92 21.7036 19.8335 21.5594 19.809 21.3992C19.8031 21.311 19.8031 21.2224 19.809 21.1342L19.7849 16.5658Z" fill="#FEE500"/>
<path d="M24.0727 16.5652C24.0679 16.3856 24.1309 16.2107 24.2493 16.0755C24.3696 15.9661 24.524 15.9016 24.6864 15.8928C24.8487 15.884 25.0091 15.9315 25.1405 16.0273C25.2545 16.1206 25.3314 16.2515 25.3573 16.3965C25.3613 16.4527 25.3613 16.5091 25.3573 16.5652V18.5323L27.3886 16.1878C27.4669 16.1078 27.55 16.0328 27.6375 15.9631C27.72 15.9139 27.8145 15.8888 27.9105 15.8907C28.0508 15.89 28.1881 15.932 28.3039 16.0112C28.3585 16.0479 28.4051 16.0954 28.441 16.1505C28.4769 16.2057 28.5012 16.2675 28.5127 16.3324C28.5159 16.3482 28.5159 16.3647 28.5127 16.3806C28.5088 16.3991 28.5088 16.4182 28.5127 16.4367C28.5124 16.5212 28.4903 16.6042 28.4484 16.6776C28.4058 16.7554 28.3547 16.828 28.2959 16.8943L26.9631 18.3557L28.5689 20.8446V20.9249C28.6522 21.0399 28.7172 21.1673 28.7616 21.3023V21.3424C28.7709 21.4354 28.7574 21.5293 28.7225 21.616C28.6875 21.7027 28.6321 21.7796 28.5608 21.8402C28.4269 21.9414 28.263 21.9951 28.0952 21.9928C27.9836 21.9974 27.8728 21.9724 27.774 21.9205C27.6671 21.8487 27.579 21.7524 27.5171 21.6395L26.0237 19.2308L25.3091 19.9775V21.3183C25.3139 21.4979 25.2509 21.6728 25.1325 21.808C25.069 21.8701 24.9936 21.9185 24.9107 21.9503C24.8279 21.982 24.7394 21.9965 24.6508 21.9928C24.5026 21.9959 24.3579 21.9476 24.2413 21.8563C24.1279 21.7659 24.0509 21.6376 24.0245 21.495C24.0166 21.4364 24.0166 21.3769 24.0245 21.3183L24.0727 16.5652Z" fill="#FEE500"/>
</svg>
