<svg width="40" height="40" viewBox="0 0 40 40" fill="none" xmlns="http://www.w3.org/2000/svg">
<rect width="40" height="40" fill="white"/>
<circle cx="20" cy="20" r="20" fill="white"/>
<path d="M10.5801 15.2573C10.5801 14.3957 11.2785 13.6973 12.1401 13.6973V13.6973C13.0016 13.6973 13.7001 14.3957 13.7001 15.2573V27.2973H13.0986C11.7077 27.2973 10.5801 26.1697 10.5801 24.7787V15.2573Z" fill="#0094FF"/>
<path d="M25.7002 15.2573C25.7002 14.3957 26.3986 13.6973 27.2602 13.6973V13.6973C28.1218 13.6973 28.8202 14.3957 28.8202 15.2573V24.7787C28.8202 26.1697 27.6926 27.2973 26.3017 27.2973H25.7002V15.2573Z" fill="#03A400"/>
<path d="M26.3243 13.6752C26.967 13.1121 27.9439 13.1741 28.5104 13.8138V13.8138C29.0848 14.4624 29.0174 15.4555 28.3608 16.0206L24.7601 19.1196L24.1707 15.5618L26.3243 13.6752Z" fill="#FFE600"/>
<path d="M10.7396 14.3048C11.2237 13.5512 12.2048 13.3654 12.931 13.8898L20.2308 19.1603L24.2034 15.5265L24.7747 19.1036L20.3597 23.1993L11.1829 16.6222C10.4531 16.0992 10.2543 15.0604 10.7396 14.3048Z" fill="#FF0909" fill-opacity="0.86"/>
</svg>
