<svg width="60" height="60" viewBox="0 0 60 60" fill="none" xmlns="http://www.w3.org/2000/svg">
<path d="M28.65 34.325C32.5298 34.325 35.675 31.1798 35.675 27.3C35.675 23.4202 32.5298 20.275 28.65 20.275C24.7702 20.275 21.625 23.4202 21.625 27.3C21.625 31.1798 24.7702 34.325 28.65 34.325Z" stroke="white" stroke-width="1.5" stroke-linecap="round" stroke-linejoin="round"/>
<path d="M41.6248 50.5C41.6248 44.675 35.8248 39.9249 28.6498 39.9249C21.4748 39.9249 15.6748 44.65 15.6748 50.5" stroke="white" stroke-width="1.5" stroke-linecap="round" stroke-linejoin="round"/>
<path d="M52.5 31.25C52.5 44.375 41.875 55 28.75 55C15.625 55 5 44.375 5 31.25C5 18.125 15.625 7.5 28.75 7.5C32.025 7.5 35.15 8.14998 38 9.34998C37.675 10.35 37.5 11.4 37.5 12.5C37.5 14.375 38.025 16.15 38.95 17.65C39.45 18.5 40.1 19.2749 40.85 19.9249C42.6 21.5249 44.925 22.5 47.5 22.5C48.6 22.5 49.65 22.3249 50.625 21.9749C51.825 24.8249 52.5 27.975 52.5 31.25Z" stroke="white" stroke-width="1.5" stroke-linecap="round" stroke-linejoin="round"/>
<path d="M57.5 12.5C57.5 13.3 57.4 14.075 57.2 14.825C56.975 15.825 56.575 16.8 56.05 17.65C54.85 19.675 52.925 21.2499 50.625 21.9749C49.65 22.3249 48.6 22.5 47.5 22.5C44.925 22.5 42.6 21.5249 40.85 19.9249C40.1 19.2749 39.45 18.5 38.95 17.65C38.025 16.15 37.5 14.375 37.5 12.5C37.5 11.4 37.675 10.35 38 9.34998C38.475 7.89998 39.275 6.60005 40.325 5.52505C42.15 3.65005 44.7 2.5 47.5 2.5C50.45 2.5 53.125 3.77504 54.925 5.82504C56.525 7.60004 57.5 9.95 57.5 12.5Z" stroke="white" stroke-width="1.5" stroke-miterlimit="10" stroke-linecap="round" stroke-linejoin="round"/>
<path d="M51.2254 12.45H43.7754" stroke="white" stroke-width="1.5" stroke-miterlimit="10" stroke-linecap="round" stroke-linejoin="round"/>
<path d="M47.5 8.80005V16.275" stroke="white" stroke-width="1.5" stroke-miterlimit="10" stroke-linecap="round" stroke-linejoin="round"/>
</svg>
