<svg width="25" height="24" viewBox="0 0 25 24" fill="none" xmlns="http://www.w3.org/2000/svg">
<path d="M17.0832 3.56V2C17.0832 1.59 16.7432 1.25 16.3332 1.25C15.9232 1.25 15.5832 1.59 15.5832 2V3.5H9.08323V2C9.08323 1.59 8.74323 1.25 8.33323 1.25C7.92323 1.25 7.58323 1.59 7.58323 2V3.56C4.88323 3.81 3.57324 5.42 3.37324 7.81C3.35324 8.1 3.59324 8.34 3.87324 8.34H20.7932C21.0832 8.34 21.3232 8.09 21.2932 7.81C21.0932 5.42 19.7832 3.81 17.0832 3.56Z" fill="#733DF1"/>
<path opacity="0.4" d="M20.333 9.84C20.883 9.84 21.333 10.29 21.333 10.84V17C21.333 20 19.833 22 16.333 22H8.33301C4.83301 22 3.33301 20 3.33301 17V10.84C3.33301 10.29 3.78301 9.84 4.33301 9.84H20.333Z" fill="#733DF1"/>
<path d="M8.83301 15C8.70301 15 8.573 14.97 8.453 14.92C8.333 14.87 8.22302 14.8 8.12302 14.71C8.03302 14.61 7.96299 14.5 7.91299 14.38C7.86299 14.26 7.83301 14.13 7.83301 14C7.83301 13.87 7.86299 13.74 7.91299 13.62C7.96299 13.5 8.03302 13.39 8.12302 13.29C8.22302 13.2 8.333 13.13 8.453 13.08C8.693 12.98 8.97301 12.98 9.21301 13.08C9.33301 13.13 9.443 13.2 9.543 13.29C9.633 13.39 9.70302 13.5 9.75302 13.62C9.80302 13.74 9.83301 13.87 9.83301 14C9.83301 14.13 9.80302 14.26 9.75302 14.38C9.70302 14.5 9.633 14.61 9.543 14.71C9.443 14.8 9.33301 14.87 9.21301 14.92C9.09301 14.97 8.96301 15 8.83301 15Z" fill="#733DF1"/>
<path d="M12.333 15C12.203 15 12.073 14.97 11.953 14.92C11.833 14.87 11.723 14.8 11.623 14.71C11.443 14.52 11.333 14.26 11.333 14C11.333 13.74 11.443 13.48 11.623 13.29C11.723 13.2 11.833 13.13 11.953 13.08C12.193 12.97 12.473 12.97 12.713 13.08C12.833 13.13 12.943 13.2 13.043 13.29C13.223 13.48 13.333 13.74 13.333 14C13.333 14.26 13.223 14.52 13.043 14.71C12.943 14.8 12.833 14.87 12.713 14.92C12.593 14.97 12.463 15 12.333 15Z" fill="#733DF1"/>
<path d="M8.83301 18.5C8.70301 18.5 8.573 18.47 8.453 18.42C8.333 18.37 8.22302 18.3 8.12302 18.21C7.94302 18.02 7.83301 17.76 7.83301 17.5C7.83301 17.24 7.94302 16.98 8.12302 16.79C8.22302 16.7 8.333 16.63 8.453 16.58C8.693 16.48 8.97301 16.48 9.21301 16.58C9.33301 16.63 9.443 16.7 9.543 16.79C9.723 16.98 9.83301 17.24 9.83301 17.5C9.83301 17.76 9.723 18.02 9.543 18.21C9.443 18.3 9.33301 18.37 9.21301 18.42C9.09301 18.47 8.96301 18.5 8.83301 18.5Z" fill="#733DF1"/>
</svg>
