<svg width="71" height="70" viewBox="0 0 71 70" fill="none" xmlns="http://www.w3.org/2000/svg">
<path opacity="0.4" d="M19.604 6.3335H26.3999C28.7241 6.3335 30.188 6.71129 31.2886 7.35498C32.2584 7.92223 32.9878 8.71829 33.7886 9.75635L34.1372 10.2163L34.1382 10.2173L38.2212 15.6421L38.2222 15.6431C38.6468 16.2047 38.9718 16.6577 39.4419 16.9146C39.9235 17.1777 40.503 17.2124 41.3335 17.2124H49.4731C55.9183 17.1853 61.4488 21.2751 63.5845 27.0337H7.2124V18.7251C7.21244 11.8846 12.7635 6.33353 19.604 6.3335Z" fill="#B4AFB6" stroke="#B4AFB6"/>
<path d="M63.5415 28.0332C63.8933 29.1933 64.0867 30.4014 64.1382 31.6377L64.1392 31.6621L64.1431 31.6875C64.1661 31.8492 64.1665 32.0729 64.1665 32.2871V48.5625C64.1664 56.8904 57.3908 63.6668 49.063 63.667H21.938C13.61 63.667 6.83357 56.8905 6.8335 48.5625V28.0332H63.5415ZM32.354 38.0879C31.313 37.0469 29.5963 37.047 28.5552 38.0879C27.5141 39.129 27.5141 40.8456 28.5552 41.8867L31.8169 45.1494L28.438 48.5293C27.397 49.5703 27.3972 51.287 28.438 52.3281C28.9741 52.8643 29.6579 53.1161 30.3374 53.1162C30.9321 53.1162 31.5304 52.9241 32.0298 52.5166L32.2368 52.3281L35.6167 48.9482L38.8804 52.2119C39.4165 52.7479 40.1003 53 40.7798 53C41.4739 52.9999 42.1469 52.7086 42.6665 52.2236L42.6724 52.2178L42.6792 52.2119C43.72 51.1709 43.7199 49.4542 42.6792 48.4131L39.4155 45.1494L42.562 42.0039C43.603 40.9629 43.6029 39.2462 42.562 38.2051C41.5209 37.164 39.8043 37.164 38.7632 38.2051L35.6167 41.3506L32.354 38.0879Z" fill="#B4AFB6" stroke="#B4AFB6"/>
</svg>
