<svg width="89" height="72" viewBox="0 0 89 72" fill="none" xmlns="http://www.w3.org/2000/svg">
<path d="M46.4291 54.5615L46.848 48.1078C46.9024 47.1303 47.7532 46.2263 48.7256 46.1126L55.1419 45.3026C56.3471 44.8496 56.9021 43.4321 56.308 42.2853L54.9186 39.6846C54.5904 39.0525 53.7099 38.5473 52.9907 38.5758L46.1728 38.8317C45.6786 38.8663 44.9984 38.6082 44.6465 38.2771L40.2861 34.1739C39.6436 33.5693 39.7923 32.7981 40.6091 32.4205L51.0546 27.8193C52.6889 27.0942 52.9857 25.5219 51.7006 24.3125L49.7269 22.4553C48.7019 21.4907 46.7904 21.1615 45.4832 21.7536L33.5966 26.9973C33.2548 27.1459 32.7282 27.0618 32.4528 26.8026L27.8629 22.4835C26.4248 21.1302 23.7144 20.6077 21.8244 21.2979C21.1549 21.5496 20.6415 22.0952 20.431 22.7787C19.8568 24.7071 20.5582 27.3952 21.9964 28.7485L26.5862 33.0676C26.8616 33.3267 26.9775 33.8473 26.85 34.1975L22.3524 46.365C21.8255 47.6913 22.2701 49.5792 23.2952 50.5439L25.2688 52.4011C26.554 53.6104 28.1054 53.2187 28.7299 51.5434L32.6884 40.8378C32.9857 40.0007 33.7764 39.8042 34.4189 40.4089L38.7793 44.5121C39.1312 44.8432 39.4301 45.5065 39.4402 45.9863L39.5988 52.8072C39.614 53.5268 40.1564 54.3605 40.8227 54.6642L43.5029 55.8931C44.6543 56.4476 46.0508 55.8219 46.4291 54.5615Z" stroke="#AB8AF7" stroke-width="1.5" stroke-linecap="round" stroke-linejoin="round"/>
<path d="M66 56L88 71" stroke="#AB8AF7" stroke-width="2" stroke-linecap="round"/>
<path d="M53 56L75 71" stroke="#AB8AF7" stroke-width="2" stroke-linecap="round"/>
</svg>
