<svg width="61" height="61" viewBox="0 0 61 61" fill="none" xmlns="http://www.w3.org/2000/svg">
<path opacity="0.4" d="M19.3252 6H39.2002C43.413 6 46.7243 7.25566 48.9814 9.50977C51.2385 11.7638 52.5 15.0748 52.5 19.2998V39.1748C52.5 43.4005 51.244 46.7111 48.9902 48.9648C46.7365 51.2186 43.4259 52.4746 39.2002 52.4746H19.3252C15.1124 52.4746 11.8011 51.219 9.54395 48.9648C7.28704 46.7108 6.02539 43.3997 6.02539 39.1748V19.2998C6.02542 15.0742 7.28141 11.7635 9.53516 9.50977C11.6481 7.39683 14.69 6.16087 18.5439 6.01465L19.3252 6Z" fill="#B4AFB6" stroke="#B4AFB6"/>
<path d="M36.1777 40.3516C35.4187 37.8568 37.625 35.5508 40.0625 36.1357L40.2998 36.2021L40.3018 36.2031L55.2021 40.8281V40.8271C58.1404 41.7521 58.2783 45.837 55.5176 47.0205L55.2412 47.126H55.2402L51.167 48.501C49.9759 48.898 49.0037 49.7931 48.5361 50.9795L48.4512 51.2158L47.0762 55.29V55.292C46.0883 58.2555 42.0244 58.2942 40.9014 55.5049L40.8027 55.2266L36.1777 40.3516Z" fill="#B4AFB6" stroke="#B4AFB6"/>
</svg>
