<svg width="60" height="60" viewBox="0 0 60 60" fill="none" xmlns="http://www.w3.org/2000/svg">
<path d="M30 51.25H17.5C10 51.25 5 47.5 5 38.75V21.25C5 12.5 10 8.75 17.5 8.75H42.5C50 8.75 55 12.5 55 21.25V28.75" stroke="white" stroke-width="1.5" stroke-miterlimit="10" stroke-linecap="round" stroke-linejoin="round"/>
<path d="M42.5 22.5L34.675 28.75C32.1 30.8 27.875 30.8 25.3 28.75L17.5 22.5" stroke="white" stroke-width="1.5" stroke-miterlimit="10" stroke-linecap="round" stroke-linejoin="round"/>
<path d="M48.0246 36.925L39.1746 45.775C38.8246 46.125 38.4996 46.775 38.4246 47.25L37.9496 50.625C37.7746 51.85 38.6246 52.7001 39.8496 52.5251L43.2246 52.0501C43.6996 51.9751 44.3746 51.65 44.6996 51.3L53.5496 42.4501C55.0746 40.9251 55.7996 39.1501 53.5496 36.9001C51.3246 34.6751 49.5496 35.4 48.0246 36.925Z" stroke="white" stroke-width="1.5" stroke-miterlimit="10" stroke-linecap="round" stroke-linejoin="round"/>
<path d="M46.75 38.2C47.5 40.9 49.6 43 52.3 43.75" stroke="white" stroke-width="1.5" stroke-miterlimit="10" stroke-linecap="round" stroke-linejoin="round"/>
</svg>
