<svg width="1095" height="411" viewBox="0 0 1095 411" fill="none" xmlns="http://www.w3.org/2000/svg">
<path d="M1094.23 400.65C922.764 411.136 500.051 407.933 500.051 372.671C500.051 327.874 733.596 337.807 733.596 275.025C733.596 226.202 248.722 236.436 1 238.03" stroke="#2A292C" stroke-width="10"/>
<ellipse cx="592.914" cy="243.612" rx="17.6165" ry="17.6165" fill="#545257"/>
<ellipse cx="593.168" cy="243.612" rx="12.3316" ry="12.0799" fill="#7E7B83"/>
<rect x="587.882" y="6.54327" width="10.0666" height="241.095" rx="5.0333" fill="#2A292C"/>
<path d="M700.667 46.3835C703.399 45.4706 703.399 41.6054 700.667 40.6926L600.263 7.15269C598.32 6.50364 596.313 7.94963 596.313 9.99812V77.078C596.313 79.1264 598.32 80.5724 600.263 79.9234L700.667 46.3835Z" fill="#733DF1"/>
</svg>
