<svg width="25" height="25" viewBox="0 0 25 25" fill="none" xmlns="http://www.w3.org/2000/svg">
<path d="M22.9173 9.05216C22.9173 10.2917 22.7194 11.4376 22.3757 12.5001H2.62565C2.2819 11.4376 2.08398 10.2917 2.08398 9.05216C2.08398 5.83341 4.67773 3.22925 7.87565 3.22925C9.76107 3.22925 11.4486 4.14591 12.5007 5.55216C13.5527 4.14591 15.2402 3.22925 17.1257 3.22925C20.3236 3.22925 22.9173 5.83341 22.9173 9.05216Z" fill="#C7B1F9"/>
<path d="M22.3745 12.5C20.7287 17.7083 15.6558 20.8229 13.1453 21.6771C12.7912 21.8021 12.2078 21.8021 11.8537 21.6771C9.34326 20.8229 4.27035 17.7083 2.62451 12.5H22.3745Z" fill="#C7B1F9"/>
</svg>
