<svg width="20" height="20" viewBox="0 0 20 20" fill="none" xmlns="http://www.w3.org/2000/svg">
<path d="M10.0002 10.0003C12.3013 10.0003 14.1668 8.13485 14.1668 5.83366C14.1668 3.53247 12.3013 1.66699 10.0002 1.66699C7.69898 1.66699 5.8335 3.53247 5.8335 5.83366C5.8335 8.13485 7.69898 10.0003 10.0002 10.0003Z" stroke="#B4AFB6" stroke-width="1.5" stroke-linecap="round" stroke-linejoin="round"/>
<path d="M2.8418 18.3333C2.8418 15.1083 6.05013 12.5 10.0001 12.5C10.8001 12.5 11.5751 12.6083 12.3001 12.8083" stroke="#B4AFB6" stroke-width="1.5" stroke-linecap="round" stroke-linejoin="round"/>
<path d="M18.3332 15.0003C18.3332 15.267 18.2998 15.5253 18.2332 15.7753C18.1582 16.1087 18.0248 16.4337 17.8498 16.717C17.2748 17.6837 16.2165 18.3337 14.9998 18.3337C14.1415 18.3337 13.3665 18.0086 12.7832 17.4753C12.5332 17.2586 12.3165 17.0003 12.1498 16.717C11.8415 16.217 11.6665 15.6253 11.6665 15.0003C11.6665 14.1003 12.0248 13.2753 12.6082 12.6753C13.2165 12.0503 14.0665 11.667 14.9998 11.667C15.9832 11.667 16.8748 12.092 17.4748 12.7753C18.0082 13.367 18.3332 14.1503 18.3332 15.0003Z" stroke="#B4AFB6" stroke-width="1.5" stroke-miterlimit="10" stroke-linecap="round" stroke-linejoin="round"/>
<path d="M16.2416 14.9834H13.7583" stroke="#B4AFB6" stroke-width="1.5" stroke-miterlimit="10" stroke-linecap="round" stroke-linejoin="round"/>
<path d="M15 13.7666V16.2583" stroke="#B4AFB6" stroke-width="1.5" stroke-miterlimit="10" stroke-linecap="round" stroke-linejoin="round"/>
</svg>
