<svg width="21" height="20" viewBox="0 0 21 20" fill="none" xmlns="http://www.w3.org/2000/svg">
<path d="M10.0502 11.4421C11.3434 11.4421 12.3918 10.3937 12.3918 9.10045C12.3918 7.80719 11.3434 6.75879 10.0502 6.75879C8.75689 6.75879 7.7085 7.80719 7.7085 9.10045C7.7085 10.3937 8.75689 11.4421 10.0502 11.4421Z" stroke="#B4AFB6" stroke-width="1.5" stroke-linecap="round" stroke-linejoin="round"/>
<path d="M14.3751 16.8336C14.3751 14.892 12.4418 13.3086 10.0501 13.3086C7.65843 13.3086 5.7251 14.8836 5.7251 16.8336" stroke="#B4AFB6" stroke-width="1.5" stroke-linecap="round" stroke-linejoin="round"/>
<path d="M17.9998 10.4167C17.9998 14.7917 14.4582 18.3333 10.0832 18.3333C5.70817 18.3333 2.1665 14.7917 2.1665 10.4167C2.1665 6.04167 5.70817 2.5 10.0832 2.5C11.1748 2.5 12.2165 2.71666 13.1665 3.11666C13.0582 3.44999 12.9998 3.8 12.9998 4.16667C12.9998 4.79167 13.1748 5.38333 13.4832 5.88333C13.6498 6.16666 13.8665 6.42498 14.1165 6.64164C14.6998 7.17498 15.4748 7.5 16.3332 7.5C16.6998 7.5 17.0498 7.44165 17.3748 7.32498C17.7748 8.27498 17.9998 9.325 17.9998 10.4167Z" stroke="#B4AFB6" stroke-width="1.5" stroke-linecap="round" stroke-linejoin="round"/>
<path d="M19.6667 4.16634C19.6667 4.43301 19.6333 4.69133 19.5667 4.94133C19.4917 5.27467 19.3583 5.59967 19.1833 5.88301C18.7833 6.55801 18.1417 7.08299 17.375 7.32466C17.05 7.44132 16.7 7.49967 16.3333 7.49967C15.475 7.49967 14.7 7.17465 14.1167 6.64132C13.8667 6.42465 13.65 6.16634 13.4833 5.88301C13.175 5.38301 13 4.79134 13 4.16634C13 3.79967 13.0583 3.44967 13.1667 3.11633C13.325 2.633 13.5917 2.19969 13.9417 1.84136C14.55 1.21636 15.4 0.833008 16.3333 0.833008C17.3167 0.833008 18.2083 1.25802 18.8083 1.94136C19.3417 2.53302 19.6667 3.31634 19.6667 4.16634Z" stroke="#B4AFB6" stroke-width="1.5" stroke-miterlimit="10" stroke-linecap="round" stroke-linejoin="round"/>
<path d="M17.5751 4.15039H15.0918" stroke="#B4AFB6" stroke-width="1.5" stroke-miterlimit="10" stroke-linecap="round" stroke-linejoin="round"/>
<path d="M16.3335 2.93359V5.42525" stroke="#B4AFB6" stroke-width="1.5" stroke-miterlimit="10" stroke-linecap="round" stroke-linejoin="round"/>
</svg>
