<svg width="25" height="24" viewBox="0 0 25 24" fill="none" xmlns="http://www.w3.org/2000/svg">
<path d="M12.6667 18.5C16.2565 18.5 19.1667 15.5899 19.1667 12C19.1667 8.41015 16.2565 5.5 12.6667 5.5C9.07682 5.5 6.16667 8.41015 6.16667 12C6.16667 15.5899 9.07682 18.5 12.6667 18.5Z" stroke="#4E4653" stroke-width="1.5" stroke-linecap="round" stroke-linejoin="round"/>
<path d="M19.8067 19.14L19.6767 19.01M19.6767 4.99L19.8067 4.86L19.6767 4.99ZM5.52667 19.14L5.65667 19.01L5.52667 19.14ZM12.6667 2.08V2V2.08ZM12.6667 22V21.92V22ZM2.74667 12H2.66667H2.74667ZM22.6667 12H22.5867H22.6667ZM5.65667 4.99L5.52667 4.86L5.65667 4.99Z" stroke="#4E4653" stroke-width="2" stroke-linecap="round" stroke-linejoin="round"/>
</svg>
