<svg width="25" height="24" viewBox="0 0 25 24" fill="none" xmlns="http://www.w3.org/2000/svg">
<path d="M12.667 18.5C16.2568 18.5 19.167 15.5899 19.167 12C19.167 8.41015 16.2568 5.5 12.667 5.5C9.07714 5.5 6.16699 8.41015 6.16699 12C6.16699 15.5899 9.07714 18.5 12.667 18.5Z" stroke="#020303" stroke-width="1.5" stroke-linecap="round" stroke-linejoin="round"/>
<path d="M19.807 19.14L19.677 19.01M19.677 4.99L19.807 4.86L19.677 4.99ZM5.52699 19.14L5.65699 19.01L5.52699 19.14ZM12.667 2.08V2V2.08ZM12.667 22V21.92V22ZM2.74699 12H2.66699H2.74699ZM22.667 12H22.587H22.667ZM5.65699 4.99L5.52699 4.86L5.65699 4.99Z" stroke="#020303" stroke-width="2" stroke-linecap="round" stroke-linejoin="round"/>
</svg>
