<svg width="106" height="88" viewBox="0 0 106 88" fill="none" xmlns="http://www.w3.org/2000/svg">
<path d="M67.6279 41.7729L60.3753 38.4682C59.2729 37.9781 58.5954 36.6013 58.8801 35.4298L60.6894 27.6732C60.6828 26.0848 59.2877 24.8248 57.7133 25.0087L54.1248 25.4748C53.2565 25.5771 52.2985 26.3719 52.024 27.2142L49.4049 35.1918C49.2336 35.777 48.6457 36.449 48.114 36.7102L41.5256 39.9469C40.5547 40.4239 39.7303 39.9152 39.6446 38.8077L38.8101 24.7453C38.6735 22.5428 36.9898 21.513 35.048 22.4669L32.0659 23.9319C30.517 24.6928 29.321 26.7541 29.4442 28.5211L30.4026 44.527C30.4277 44.9863 30.1058 45.5571 29.6896 45.7615L22.7545 49.1685C20.5815 50.236 18.8215 53.1345 18.8086 55.6167C18.8123 56.4992 19.2211 57.33 19.9183 57.8717C21.8935 59.3773 25.2887 59.7432 27.4617 58.6757L34.3968 55.2687C34.8129 55.0642 35.4619 55.1581 35.8106 55.4584L47.8998 65.9666C49.202 67.1543 51.566 67.4667 53.1149 66.7058L56.097 65.2408C58.0388 64.2869 58.2507 62.3258 56.5884 60.8728L45.9523 51.6256C45.1154 50.9167 45.2271 49.9186 46.198 49.4416L52.7864 46.205C53.3181 45.9438 54.2097 45.8889 54.7664 46.087L62.6887 48.886C63.5239 49.1831 64.7158 48.9218 65.3501 48.2859L67.9108 45.7311C69.0413 44.6451 68.9176 42.7605 67.6279 41.7729Z" stroke="#B4AFB6" stroke-width="1.5" stroke-linecap="round" stroke-linejoin="round"/>
<path d="M77.6455 19.8234L104.321 0.999982" stroke="#B4AFB6" stroke-width="2" stroke-linecap="round"/>
<path d="M72.0908 34.821L98.7658 15.9977" stroke="#B4AFB6" stroke-width="2" stroke-linecap="round"/>
</svg>
