<svg width="60" height="60" viewBox="0 0 60 60" fill="none" xmlns="http://www.w3.org/2000/svg">
<path d="M27.55 48.75H18.75C17.2 48.75 15.825 48.7 14.6 48.525C8.025 47.8 6.25 44.7 6.25 36.25V23.75C6.25 15.3 8.025 12.2 14.6 11.475C15.825 11.3 17.2 11.25 18.75 11.25H27.4" stroke="white" stroke-width="1.5" stroke-linecap="round" stroke-linejoin="round"/>
<path d="M37.5498 11.25H41.2498C42.7998 11.25 44.1748 11.3 45.3998 11.475C51.9748 12.2 53.7498 15.3 53.7498 23.75V36.25C53.7498 44.7 51.9748 47.8 45.3998 48.525C44.1748 48.7 42.7998 48.75 41.2498 48.75H37.5498" stroke="white" stroke-width="1.5" stroke-linecap="round" stroke-linejoin="round"/>
<path d="M37.5 5V55" stroke="white" stroke-width="1.5" stroke-linecap="round" stroke-linejoin="round"/>
<path d="M27.7363 30H27.7587" stroke="white" stroke-width="2" stroke-linecap="round" stroke-linejoin="round"/>
<path d="M17.7363 30H17.7587" stroke="white" stroke-width="2" stroke-linecap="round" stroke-linejoin="round"/>
</svg>
