<svg width="40" height="41" viewBox="0 0 40 41" fill="none" xmlns="http://www.w3.org/2000/svg">
<path d="M26.6665 3.0835C27.0737 3.0835 27.4165 3.42631 27.4165 3.8335V6.88916L27.8706 6.93115C30.0274 7.13085 31.5746 7.86737 32.6235 8.98096C33.61 10.0282 34.1984 11.4545 34.3999 13.2046L34.4351 13.5581L34.436 13.5698C34.4515 13.7145 34.3135 13.8999 34.1001 13.8999H5.8999C5.70875 13.8997 5.55351 13.7314 5.56592 13.5513L5.56494 13.5503C5.72598 11.6418 6.32595 10.0964 7.37646 8.98096C8.4254 7.86742 9.97274 7.13089 12.1294 6.93115L12.5835 6.88916V3.8335C12.5835 3.42633 12.9263 3.08353 13.3335 3.0835C13.7407 3.0835 14.0835 3.42631 14.0835 3.8335V6.8335H25.9165V3.8335C25.9165 3.42644 26.2595 3.08372 26.6665 3.0835Z" fill="#B4AFB6" stroke="#B4AFB6"/>
<path opacity="0.4" d="M6.66699 17.3833H33.3242L33.4443 17.3911C34.0373 17.4616 34.5 17.968 34.5 18.5669V21.4663C34.5 22.1389 33.9443 22.6534 33.3096 22.6206L33.1826 22.6069L33.1709 22.605L32.8066 22.5571C32.4374 22.5133 32.0542 22.4829 31.667 22.4829C26.3409 22.4829 22 26.8238 22 32.1499C22 32.7933 22.1847 33.5951 22.4092 34.3599L22.6416 35.106L22.6426 35.1099C22.8992 35.8681 22.342 36.6499 21.5332 36.6499H13.333C10.5119 36.6498 8.57908 35.8463 7.3457 34.5181C6.10609 33.1831 5.50004 31.2401 5.5 28.8169V18.5503C5.5 17.9098 6.02647 17.3833 6.66699 17.3833Z" fill="#B4AFB6" stroke="#B4AFB6"/>
<path d="M13.3418 22.999C13.6082 22.7359 14.0178 22.6081 14.3965 22.6885L14.4072 22.6914L14.418 22.6934C14.464 22.701 14.5164 22.7172 14.5762 22.7471L14.6084 22.7627L14.6416 22.7744C14.6924 22.7913 14.7507 22.8191 14.8164 22.8623C14.8487 22.8881 14.8808 22.9146 14.9131 22.9404C14.9426 22.964 14.9725 22.9871 15.002 23.0107C15.2105 23.2391 15.333 23.5432 15.333 23.833C15.333 24.1217 15.211 24.4243 15.0039 24.6523C14.9735 24.6766 14.9435 24.7013 14.9131 24.7256C14.8798 24.7522 14.8458 24.779 14.8125 24.8057C14.782 24.8255 14.7538 24.8428 14.7266 24.8564L14.6416 24.8926L14.6084 24.9033L14.5762 24.9189C14.5176 24.9482 14.4662 24.9648 14.4209 24.9727C14.2993 24.99 14.2229 25 14.167 25C13.8741 25 13.5661 24.8747 13.3369 24.6621C13.1248 24.433 13 24.1256 13 23.833C13.0001 23.5383 13.1267 23.2286 13.3418 22.999Z" fill="#B4AFB6" stroke="#B4AFB6"/>
<path d="M20.0002 25.5C19.5668 25.5 19.1335 25.3166 18.8168 25.0166C18.5168 24.7 18.3335 24.2667 18.3335 23.8333C18.3335 23.4 18.5168 22.9667 18.8168 22.65C19.4502 22.0333 20.5668 22.0333 21.1835 22.65C21.4835 22.9667 21.6668 23.4 21.6668 23.8333C21.6668 24.2667 21.4835 24.7 21.1835 25.0166C20.8668 25.3166 20.4335 25.5 20.0002 25.5Z" fill="#B4AFB6"/>
<path d="M14.1667 31.3334C13.7333 31.3334 13.3 31.1501 12.9833 30.8501C12.6833 30.5334 12.5 30.1001 12.5 29.6668C12.5 29.2334 12.6833 28.8001 12.9833 28.4835C13.15 28.3335 13.3167 28.2168 13.5333 28.1334C14.15 27.8668 14.8833 28.0168 15.35 28.4835C15.65 28.8001 15.8333 29.2334 15.8333 29.6668C15.8333 30.1001 15.65 30.5334 15.35 30.8501C15.0333 31.1501 14.6 31.3334 14.1667 31.3334Z" fill="#B4AFB6"/>
<path d="M36.3833 27.45C33.7833 24.85 29.55 24.85 26.95 27.45C24.35 30.05 24.35 34.2833 26.95 36.8833C29.55 39.4833 33.7833 39.4833 36.3833 36.8833C38.9833 34.2833 38.9833 30.05 36.3833 27.45ZM35.1167 33.1C34.9 33.3333 34.5833 33.4666 34.2333 33.4666H33V34.7666C33 35.1166 32.8667 35.4166 32.6333 35.65C32.4 35.8833 32.1 36.0166 31.75 36.0166C31.0667 36.0166 30.5 35.45 30.5 34.7666V33.4666H29.25C28.5667 33.4666 28 32.9166 28 32.2166C28 31.5333 28.5667 30.9666 29.25 30.9666H30.5V29.7833C30.5 29.1 31.05 28.5333 31.75 28.5333C32.4333 28.5333 33 29.1 33 29.7833V30.9666H34.2333C34.9333 30.9666 35.4833 31.5333 35.4833 32.2166C35.4833 32.5666 35.35 32.8833 35.1167 33.1Z" fill="#B4AFB6"/>
</svg>
