<svg width="100" height="101" viewBox="0 0 100 101" fill="none" xmlns="http://www.w3.org/2000/svg">
<path opacity="0.4" d="M49.9585 9.18652H49.9995C64.3492 9.18652 80.6408 17.4402 85.2192 35.8291L85.4292 36.7129V36.7139C90.0921 57.2788 78.0453 74.8081 66.478 86.3154L65.3608 87.4102L65.3599 87.4111C61.0817 91.567 55.5411 93.6445 49.9995 93.6445C44.6316 93.6444 39.2638 91.6948 35.0054 87.793L34.5962 87.4092C22.8925 76.1144 10.1221 58.4626 14.356 37.666L14.5708 36.6729V36.6719C18.882 17.7036 35.4236 9.18652 49.9585 9.18652Z" fill="#B4AFB6" stroke="#B4AFB6"/>
<path d="M49.9995 32.1035C51.4317 32.1035 52.6245 33.2963 52.6245 34.7285V43.5615H61.4585C62.8904 43.5617 64.0833 44.7546 64.0835 46.1865C64.0835 47.6186 62.8905 48.8113 61.4585 48.8115H52.6245V57.6455C52.6243 59.0776 51.4316 60.2705 49.9995 60.2705C48.5676 60.2703 47.3747 59.0774 47.3745 57.6455V48.8115H38.5415C37.1093 48.8115 35.9165 47.6187 35.9165 46.1865C35.9167 44.7545 37.1094 43.5615 38.5415 43.5615H47.3745V34.7285C47.3745 33.2964 48.5675 32.1037 49.9995 32.1035Z" fill="#B4AFB6" stroke="#B4AFB6"/>
</svg>
