<svg width="36" height="35" viewBox="0 0 36 35" fill="none" xmlns="http://www.w3.org/2000/svg">
<path d="M13.6252 14.5833C15.236 14.5833 16.5418 13.2775 16.5418 11.6667C16.5418 10.0558 15.236 8.75 13.6252 8.75C12.0143 8.75 10.7085 10.0558 10.7085 11.6667C10.7085 13.2775 12.0143 14.5833 13.6252 14.5833Z" stroke="#B4AFB6" stroke-width="1.5" stroke-linecap="round" stroke-linejoin="round"/>
<path d="M19.4582 2.91699H13.6248C6.33317 2.91699 3.4165 5.83366 3.4165 13.1253V21.8753C3.4165 29.167 6.33317 32.0837 13.6248 32.0837H22.3748C29.6665 32.0837 32.5832 29.167 32.5832 21.8753V14.5837" stroke="#B4AFB6" stroke-width="1.5" stroke-linecap="round" stroke-linejoin="round"/>
<path d="M23.4688 7.29199H31.4896" stroke="#B4AFB6" stroke-width="1.5" stroke-linecap="round"/>
<path d="M27.479 11.3021V3.28125" stroke="#B4AFB6" stroke-width="1.5" stroke-linecap="round"/>
<path d="M4.39355 27.6352L11.5831 22.8081C12.7352 22.0352 14.3977 22.1227 15.4331 23.0122L15.9144 23.4352C17.0519 24.4122 18.8894 24.4122 20.0269 23.4352L26.0936 18.2289C27.2311 17.2518 29.0686 17.2518 30.2061 18.2289L32.5831 20.2706" stroke="#B4AFB6" stroke-width="1.5" stroke-linecap="round" stroke-linejoin="round"/>
</svg>
