<svg width="100" height="101" viewBox="0 0 100 101" fill="none" xmlns="http://www.w3.org/2000/svg">
<path d="M47.75 67.542C59.5318 67.542 68.8749 75.325 68.875 84.667V85.5986C62.8326 89.4187 55.6364 91.6669 47.917 91.667C40.0723 91.667 32.7512 89.3363 26.625 85.3525V84.667C26.6251 75.4716 35.7181 67.7859 47.2012 67.5479L47.75 67.542Z" fill="#B4AFB6" stroke="#B4AFB6"/>
<path opacity="0.4" d="M47.9165 13.5C53.1487 13.5 58.1454 14.5103 62.7212 16.374C62.2525 17.9551 62.0005 19.6083 62.0005 21.333C62.0005 24.5477 62.8998 27.593 64.4858 30.1689V30.1699C65.3451 31.6307 66.461 32.9601 67.7466 34.0762V34.0771C70.7519 36.8248 74.7457 38.4999 79.1665 38.5C80.8845 38.5 82.5368 38.2497 84.0894 37.749C85.9531 42.3258 87.0004 47.3574 87.0005 52.583C87.0005 66.0322 80.2222 77.8747 69.8755 84.9395V84.667C69.8755 74.5925 59.8851 66.5421 47.7505 66.542C35.658 66.542 25.6255 74.5919 25.6255 84.667V84.6797C15.4861 77.6196 8.8335 65.9038 8.8335 52.583C8.83367 30.9844 26.3179 13.5002 47.9165 13.5Z" fill="#B4AFB6" stroke="#B4AFB6"/>
<path d="M91.5417 10.2087C88.5417 6.79206 84.0833 4.66699 79.1667 4.66699C74.5 4.66699 70.25 6.58375 67.2083 9.70875C65.4583 11.5004 64.125 13.667 63.3333 16.0836C62.7917 17.7503 62.5 19.5003 62.5 21.3337C62.5 24.4587 63.375 27.417 64.9167 29.917C65.75 31.3336 66.8333 32.6252 68.0833 33.7085C71 36.3752 74.875 38.0003 79.1667 38.0003C81 38.0003 82.75 37.7086 84.375 37.1252C88.2083 35.9169 91.4167 33.292 93.4167 29.917C94.2917 28.5003 94.9583 26.8753 95.3333 25.2086C95.6667 23.9586 95.8333 22.667 95.8333 21.3337C95.8333 17.0837 94.2083 13.1671 91.5417 10.2087ZM85.375 24.3752H82.2917V27.6254C82.2917 29.3337 80.875 30.7504 79.1667 30.7504C77.4583 30.7504 76.0417 29.3337 76.0417 27.6254V24.3752H72.9583C71.25 24.3752 69.8333 22.9586 69.8333 21.2502C69.8333 19.5419 71.25 18.1252 72.9583 18.1252H76.0417V15.1671C76.0417 13.4587 77.4583 12.0421 79.1667 12.0421C80.875 12.0421 82.2917 13.4587 82.2917 15.1671V18.1252H85.375C87.0833 18.1252 88.5 19.5419 88.5 21.2502C88.5 22.9586 87.125 24.3752 85.375 24.3752Z" fill="#B4AFB6"/>
<path d="M47.7498 61.8747C54.2162 61.8747 59.4582 56.6327 59.4582 50.1663C59.4582 43.7 54.2162 38.458 47.7498 38.458C41.2835 38.458 36.0415 43.7 36.0415 50.1663C36.0415 56.6327 41.2835 61.8747 47.7498 61.8747Z" fill="#B4AFB6"/>
</svg>
