<svg width="60" height="60" viewBox="0 0 60 60" fill="none" xmlns="http://www.w3.org/2000/svg">
<path d="M30 30C36.9036 30 42.5 24.4036 42.5 17.5C42.5 10.5964 36.9036 5 30 5C23.0964 5 17.5 10.5964 17.5 17.5C17.5 24.4036 23.0964 30 30 30Z" stroke="white" stroke-width="1.5" stroke-linecap="round" stroke-linejoin="round"/>
<path d="M48.0247 39.35L39.1746 48.2001C38.8246 48.5501 38.4996 49.2001 38.4246 49.6751L37.9496 53.05C37.7746 54.275 38.6246 55.125 39.8496 54.95L43.2246 54.475C43.6996 54.4 44.3746 54.075 44.6996 53.725L53.5496 44.8751C55.0746 43.3501 55.7996 41.575 53.5496 39.325C51.3246 37.1 49.5497 37.825 48.0247 39.35Z" stroke="white" stroke-width="1.5" stroke-miterlimit="10" stroke-linecap="round" stroke-linejoin="round"/>
<path d="M46.75 40.625C47.5 43.325 49.5999 45.4249 52.2999 46.1749" stroke="white" stroke-width="1.5" stroke-miterlimit="10" stroke-linecap="round" stroke-linejoin="round"/>
<path d="M8.52539 55C8.52539 45.325 18.1505 37.5 30.0005 37.5C32.6005 37.5 35.1004 37.875 37.4254 38.575" stroke="white" stroke-width="1.5" stroke-linecap="round" stroke-linejoin="round"/>
</svg>
