<svg width="20" height="20" viewBox="0 0 20 20" fill="none" xmlns="http://www.w3.org/2000/svg">
<path d="M8.3335 15.8333C8.3335 16.75 9.0835 17.5 10.0002 17.5C10.9168 17.5 11.6668 16.75 11.6668 15.8333C11.6668 14.9167 10.9168 14.1667 10.0002 14.1667C9.0835 14.1667 8.3335 14.9167 8.3335 15.8333Z" stroke="#827788" stroke-width="1.5"/>
<path d="M8.3335 4.16634C8.3335 5.08301 9.0835 5.83301 10.0002 5.83301C10.9168 5.83301 11.6668 5.08301 11.6668 4.16634C11.6668 3.24967 10.9168 2.49967 10.0002 2.49967C9.0835 2.49967 8.3335 3.24967 8.3335 4.16634Z" stroke="#827788" stroke-width="1.5"/>
<path d="M8.3335 10.0003C8.3335 10.917 9.0835 11.667 10.0002 11.667C10.9168 11.667 11.6668 10.917 11.6668 10.0003C11.6668 9.08366 10.9168 8.33366 10.0002 8.33366C9.0835 8.33366 8.3335 9.08366 8.3335 10.0003Z" stroke="#827788" stroke-width="1.5"/>
</svg>
