<svg width="25" height="24" viewBox="0 0 25 24" fill="none" xmlns="http://www.w3.org/2000/svg">
<path opacity="0.4" d="M12.667 19C16.533 19 19.667 15.866 19.667 12C19.667 8.13401 16.533 5 12.667 5C8.801 5 5.66699 8.13401 5.66699 12C5.66699 15.866 8.801 19 12.667 19Z" fill="#733DF1"/>
<path d="M12.667 22.96C12.117 22.96 11.667 22.55 11.667 22V21.92C11.667 21.37 12.117 20.92 12.667 20.92C13.217 20.92 13.667 21.37 13.667 21.92C13.667 22.47 13.217 22.96 12.667 22.96ZM19.807 20.14C19.547 20.14 19.297 20.04 19.097 19.85L18.967 19.72C18.577 19.33 18.577 18.7 18.967 18.31C19.357 17.92 19.987 17.92 20.377 18.31L20.507 18.44C20.897 18.83 20.897 19.46 20.507 19.85C20.317 20.04 20.067 20.14 19.807 20.14ZM5.52699 20.14C5.26699 20.14 5.01699 20.04 4.81699 19.85C4.42699 19.46 4.42699 18.83 4.81699 18.44L4.94699 18.31C5.33699 17.92 5.96699 17.92 6.35699 18.31C6.74699 18.7 6.74699 19.33 6.35699 19.72L6.22699 19.85C6.03699 20.04 5.77699 20.14 5.52699 20.14ZM22.667 13H22.587C22.037 13 21.587 12.55 21.587 12C21.587 11.45 22.037 11 22.587 11C23.137 11 23.627 11.45 23.627 12C23.627 12.55 23.217 13 22.667 13ZM2.74699 13H2.66699C2.11699 13 1.66699 12.55 1.66699 12C1.66699 11.45 2.11699 11 2.66699 11C3.21699 11 3.70699 11.45 3.70699 12C3.70699 12.55 3.29699 13 2.74699 13ZM19.677 5.99C19.417 5.99 19.167 5.89 18.967 5.7C18.577 5.31 18.577 4.68 18.967 4.29L19.097 4.16C19.487 3.77 20.117 3.77 20.507 4.16C20.897 4.55 20.897 5.18 20.507 5.57L20.377 5.7C20.187 5.89 19.937 5.99 19.677 5.99ZM5.65699 5.99C5.39699 5.99 5.14699 5.89 4.94699 5.7L4.81699 5.56C4.42699 5.17 4.42699 4.54 4.81699 4.15C5.20699 3.76 5.83699 3.76 6.22699 4.15L6.35699 4.28C6.74699 4.67 6.74699 5.3 6.35699 5.69C6.16699 5.89 5.90699 5.99 5.65699 5.99ZM12.667 3.04C12.117 3.04 11.667 2.63 11.667 2.08V2C11.667 1.45 12.117 1 12.667 1C13.217 1 13.667 1.45 13.667 2C13.667 2.55 13.217 3.04 12.667 3.04Z" fill="#733DF1"/>
</svg>
