<svg width="40" height="40" viewBox="0 0 40 40" fill="none" xmlns="http://www.w3.org/2000/svg">
<path d="M40 40H0V0H40V40ZM23.5742 10.3125C23.537 10.3126 23.5121 10.3249 23.4873 10.3496C23.2622 10.737 23.0237 11.2376 22.8486 11.625C20.9228 11.3376 19.0096 11.3376 17.1338 11.625C16.9712 11.2251 16.7212 10.737 16.4961 10.3496C16.4835 10.3248 16.4458 10.3125 16.4209 10.3125C14.6326 10.6124 12.9193 11.15 11.3311 11.8623C11.3187 11.8623 11.3063 11.8744 11.2939 11.8867C8.05487 16.648 7.16678 21.2975 7.60449 25.8838C7.60461 25.9087 7.61671 25.9339 7.6416 25.9463C9.7676 27.4958 11.8442 28.4328 13.8701 29.0576C13.9074 29.0699 13.9321 29.0571 13.957 29.0322C14.4321 28.3826 14.8698 27.708 15.2324 26.9834C15.2574 26.946 15.2327 26.8961 15.1953 26.8711C14.52 26.6212 13.8694 26.3079 13.2441 25.958C13.1946 25.9328 13.1941 25.858 13.2314 25.833C13.3565 25.7331 13.4941 25.6331 13.6191 25.5332C13.6441 25.5207 13.6693 25.509 13.6943 25.5215C17.7838 27.3585 22.2242 27.3585 26.2637 25.5215C26.2886 25.5091 26.3256 25.5085 26.3506 25.5332C26.4755 25.6331 26.6009 25.7331 26.7383 25.833C26.7883 25.8705 26.7756 25.933 26.7256 25.958C26.1004 26.3203 25.4506 26.6212 24.7754 26.8711C24.7254 26.8836 24.7123 26.9334 24.7373 26.9834C25.1125 27.6957 25.5375 28.3832 26.0127 29.0205C26.0377 29.0455 26.0631 29.0574 26.1006 29.0449C28.139 28.4201 30.2151 27.4832 32.3535 25.9463C32.366 25.9338 32.3791 25.9087 32.3916 25.8838C32.9169 20.5727 31.5158 15.9732 28.6895 11.8867C28.6879 11.8851 28.6757 11.8739 28.6641 11.8623C27.0759 11.1375 25.3625 10.6124 23.5742 10.3125ZM15.8457 18.1484C17.1087 18.1484 18.1091 19.2725 18.0967 20.6221C18.0967 21.9842 17.0963 23.0967 15.8457 23.0967C14.6076 23.0967 13.5947 21.9842 13.5947 20.6221C13.5948 19.26 14.5952 18.1484 15.8457 18.1484ZM24.1621 18.1484C25.4252 18.1484 26.4255 19.2725 26.4131 20.6221C26.4131 21.9842 25.4252 23.0967 24.1621 23.0967C22.9241 23.0966 21.9111 21.9842 21.9111 20.6221C21.9112 19.2601 22.9116 18.1485 24.1621 18.1484Z" fill="#5662F6"/>
</svg>
