<svg width="15" height="15" viewBox="0 0 15 15" fill="none" xmlns="http://www.w3.org/2000/svg">
<path d="M7.5 12.1875C10.0888 12.1875 12.1875 10.0888 12.1875 7.5C12.1875 4.91117 10.0888 2.8125 7.5 2.8125C4.91117 2.8125 2.8125 4.91117 2.8125 7.5C2.8125 10.0888 4.91117 12.1875 7.5 12.1875Z" stroke="#B4AFB6" stroke-width="1.5" stroke-linecap="round" stroke-linejoin="round"/>
<path d="M7.5 9.375C8.53553 9.375 9.375 8.53553 9.375 7.5C9.375 6.46447 8.53553 5.625 7.5 5.625C6.46447 5.625 5.625 6.46447 5.625 7.5C5.625 8.53553 6.46447 9.375 7.5 9.375Z" stroke="#B4AFB6" stroke-width="1.5" stroke-linecap="round" stroke-linejoin="round"/>
<path d="M7.5 2.5V1.25" stroke="#B4AFB6" stroke-width="1.5" stroke-linecap="round" stroke-linejoin="round"/>
<path d="M2.5 7.5H1.25" stroke="#B4AFB6" stroke-width="1.5" stroke-linecap="round" stroke-linejoin="round"/>
<path d="M7.5 12.5V13.75" stroke="#B4AFB6" stroke-width="1.5" stroke-linecap="round" stroke-linejoin="round"/>
<path d="M12.5 7.5H13.75" stroke="#B4AFB6" stroke-width="1.5" stroke-linecap="round" stroke-linejoin="round"/>
</svg>
